arm26_ForwardRun_states
version=1
nRows=20
nColumns=17
inDegrees=yes

# SIMM Motion File Header:
name arm26_ForwardRun_states
datacolumns 17
datarows 20
otherdata 1
range 0.30033291 0.31289269
endheader
time	r_shoulder/r_shoulder_elev/r_shoulder_elev	r_shoulder/r_shoulder_elev/r_shoulder_elev_u	r_elbow/r_elbow_flex/r_elbow_flex	r_elbow/r_elbow_flex/r_elbow_flex_u	TRIlong/activation	TRIlong/fiber_length	TRIlat/activation	TRIlat/fiber_length	TRImed/activation	TRImed/fiber_length	BIClong/activation	BIClong/fiber_length	BICshort/activation	BICshort/fiber_length	BRA/activation	BRA/fiber_length
      0.30033291	     -6.66487996	      1.03124011	     18.81046324	     -8.38876729	      0.01163230	      0.13746741	      0.01163230	      0.07604546	      0.01163230	      0.07087756	      0.01163230	      0.14261439	      0.01163230	      0.14430655	      0.01163230	      0.08670080
      0.30110297	     -6.61925189	      1.03704829	     18.44025247	     -8.39274190	      0.01161934	      0.13734654	      0.01161934	      0.07589004	      0.01161934	      0.07072213	      0.01161934	      0.14271916	      0.01161934	      0.14442265	      0.01161934	      0.08672595
      0.30162825	     -6.58798244	      1.04089966	     18.18762632	     -8.39515195	      0.01161057	      0.13726419	      0.01161057	      0.07578404	      0.01161057	      0.07061613	      0.01161057	      0.14282408	      0.01161057	      0.14450071	      0.01161057	      0.08674266
      0.30215352	     -6.55659737	      1.04473283	     17.93492764	     -8.39756462	      0.01160183	      0.13718195	      0.01160183	      0.07567807	      0.01160183	      0.07051016	      0.01160183	      0.14286960	      0.01160183	      0.14457842	      0.01160183	      0.08675902
      0.30293137	     -6.50991372	      1.05020137	     17.56060162	     -8.40054106	      0.01158899	      0.13706033	      0.01158899	      0.07552119	      0.01158899	      0.07035328	      0.01158899	      0.14298569	      0.01158899	      0.14469260	      0.01158899	      0.08678257
      0.30338932	     -6.48231656	      1.05335997	     17.34016350	     -8.40215096	      0.01158148	      0.13698883	      0.01158148	      0.07542887	      0.01158148	      0.07026096	      0.01158148	      0.14303836	      0.01158148	      0.14475887	      0.01158148	      0.08679607
      0.30406962	     -6.44116885	      1.05792020	     17.01262043	     -8.40417953	      0.01157039	      0.13688276	      0.01157039	      0.07529179	      0.01157039	      0.07012388	      0.01157039	      0.14315070	      0.01157039	      0.14485684	      0.01157039	      0.08681561
      0.30474992	     -6.39984517	      1.06241042	     16.68500222	     -8.40607899	      0.01155937	      0.13677688	      0.01155937	      0.07515478	      0.01155937	      0.06998688	      0.01155937	      0.14321900	      0.01155937	      0.14495369	      0.01155937	      0.08683454
      0.30536131	     -6.36256050	      1.06628445	     16.39051390	     -8.40732311	      0.01154954	      0.13668189	      0.01154954	      0.07503174	      0.01154954	      0.06986384	      0.01154954	      0.14334007	      0.01154954	      0.14503987	      0.01154954	      0.08685104
      0.30597269	     -6.32514035	      1.07014228	     16.09598113	     -8.40860411	      0.01153977	      0.13658707	      0.01153977	      0.07490878	      0.01153977	      0.06974088	      0.01153977	      0.14338336	      0.01153977	      0.14512524	      0.01153977	      0.08686704
      0.30687085	     -6.26993056	      1.07554209	     15.66323865	     -8.40972448	      0.01152553	      0.13644807	      0.01152553	      0.07472832	      0.01152553	      0.06956043	      0.01152553	      0.14349396	      0.01152553	      0.14524950	      0.01152553	      0.08688967
      0.30743070	     -6.23537830	      1.07878039	     15.39347516	     -8.41008060	      0.01151672	      0.13636162	      0.01151672	      0.07461596	      0.01151672	      0.06944807	      0.01151672	      0.14360408	      0.01151672	      0.14532545	      0.01151672	      0.08690324
      0.30799054	     -6.20072228	      1.08200902	     15.12369936	     -8.41048310	      0.01150796	      0.13627532	      0.01150796	      0.07450369	      0.01150796	      0.06933581	      0.01150796	      0.14364292	      0.01150796	      0.14540106	      0.01150796	      0.08691640
      0.30873937	     -6.15421022	      1.08613956	     14.76284975	     -8.41048890	      0.01149632	      0.13616015	      0.01149632	      0.07435369	      0.01149632	      0.06918582	      0.01149632	      0.14373090	      0.01149632	      0.14550121	      0.01149632	      0.08693336
      0.30937377	     -6.11466897	      1.08949804	     14.45714580	     -8.41011223	      0.01148653	      0.13606281	      0.01148653	      0.07422677	      0.01148653	      0.06905891	      0.01148653	      0.14385179	      0.01148653	      0.14558489	      0.01148653	      0.08694716
      0.31000817	     -6.07500583	      1.09284143	     14.15145424	     -8.40978751	      0.01147681	      0.13596569	      0.01147681	      0.07410001	      0.01147681	      0.06893216	      0.01147681	      0.14389174	      0.01147681	      0.14566775	      0.01147681	      0.08696044
      0.31081084	     -6.02465439	      1.09685141	     13.76471771	     -8.40875142	      0.01146460	      0.13584314	      0.01146460	      0.07393987	      0.01146460	      0.06877203	      0.01146460	      0.14398270	      0.01146460	      0.14577139	      0.01146460	      0.08697648
      0.31146189	     -5.98368072	      1.09995786	     13.45107294	     -8.40751883	      0.01145477	      0.13574402	      0.01145477	      0.07381020	      0.01145477	      0.06864237	      0.01145477	      0.14410384	      0.01145477	      0.14585417	      0.01145477	      0.08698889
      0.31211293	     -5.94259134	      1.10304894	     13.13747264	     -8.40634471	      0.01144501	      0.13564516	      0.01144501	      0.07368073	      0.01144501	      0.06851292	      0.01144501	      0.14414232	      0.01144501	      0.14593611	      0.01144501	      0.08700075
      0.31289269	     -5.89323242	      1.10654024	     12.76194864	     -8.40433792	      0.01143340	      0.13552711	      0.01143340	      0.07352595	      0.01143340	      0.06835815	      0.01143340	      0.14422676	      0.01143340	      0.14603304	      0.01143340	      0.08701424
